<?xml version="1.0" standalone="no"?>
<!DOCTYPE svg PUBLIC "-//W3C//DTD SVG 20010904//EN"
 "http://www.w3.org/TR/2001/REC-SVG-20010904/DTD/svg10.dtd">
<svg version="1.0" xmlns="http://www.w3.org/2000/svg"
 width="512.000000pt" height="512.000000pt" viewBox="0 0 512.000000 512.000000"
 preserveAspectRatio="xMidYMid meet">
<metadata>
Created by potrace 1.11, written by Peter Selinger 2001-2013
</metadata>
<g transform="translate(0.000000,512.000000) scale(0.100000,-0.100000)"
fill="#000000" stroke="none">
<path d="M1019 4503 c-8 -9 -9 -14 -3 -10 7 4 14 0 18 -8 3 -8 2 -16 -2 -19
-4 -2 -7 -17 -6 -33 1 -15 -4 -34 -10 -42 -9 -12 -8 -14 4 -9 11 4 15 -1 15
-18 -1 -13 -5 -27 -10 -31 -4 -5 -5 -2 -1 5 4 6 2 12 -3 12 -16 0 -13 -11 7
-33 9 -11 11 -17 4 -13 -13 8 -13 -19 1 -41 4 -6 3 -14 -1 -17 -5 -3 -8 -18
-8 -33 1 -15 -2 -38 -6 -51 -5 -15 -4 -21 2 -17 6 3 10 -1 10 -10 0 -9 -4 -14
-8 -11 -5 3 -9 -1 -9 -9 0 -8 4 -12 8 -10 3 3 9 -4 12 -16 4 -15 2 -18 -7 -10
-9 8 -13 7 -13 -4 0 -8 3 -15 7 -15 3 0 6 -9 7 -20 1 -11 -2 -18 -6 -16 -4 3
-8 -1 -8 -9 0 -8 4 -12 8 -10 4 3 10 -2 13 -11 3 -8 2 -12 -4 -9 -11 7 -9 -23
3 -42 4 -6 3 -14 -1 -17 -5 -3 -8 -18 -8 -33 1 -15 -2 -39 -6 -52 -6 -17 -5
-22 5 -18 14 5 16 -38 2 -50 -4 -5 -5 -2 -1 5 4 6 2 12 -3 12 -16 0 -13 -11 7
-33 10 -13 11 -17 3 -12 -11 6 -13 4 -8 -7 3 -9 0 -21 -6 -28 -8 -9 -9 -11 -1
-7 12 7 27 -30 15 -37 -4 -3 -6 -17 -5 -33 1 -15 -4 -34 -10 -42 -9 -12 -8
-14 4 -9 11 4 15 -1 15 -18 -1 -13 -5 -27 -10 -31 -4 -5 -5 -2 -1 5 4 6 2 12
-3 12 -16 0 -13 -11 7 -33 9 -11 11 -17 4 -13 -13 8 -13 -19 1 -40 3 -6 3 -14
-1 -18 -4 -4 -8 -22 -9 -39 -2 -18 -4 -47 -7 -64 -2 -18 1 -33 6 -33 6 0 4 -8
-3 -17 -8 -9 -9 -14 -3 -10 7 4 15 0 18 -9 4 -10 2 -13 -6 -8 -7 5 -9 2 -5 -8
3 -9 0 -21 -6 -28 -9 -10 -9 -11 1 -6 7 5 12 1 12 -9 0 -9 -4 -13 -10 -10 -5
3 -10 1 -10 -4 0 -6 5 -11 11 -11 8 0 7 -6 -2 -17 -12 -15 -12 -16 5 -9 20 7
20 7 0 -15 -10 -12 -13 -19 -6 -15 6 4 12 2 12 -3 0 -6 -5 -11 -12 -11 -6 0
-3 -7 8 -16 10 -8 13 -13 7 -9 -17 8 -17 -7 0 -24 10 -11 9 -12 -2 -6 -11 6
-13 4 -8 -8 3 -9 1 -18 -6 -21 -8 -3 -8 -5 2 -5 11 -1 11 -4 0 -18 -12 -15
-12 -16 5 -9 20 7 20 7 0 -15 -10 -12 -13 -19 -6 -15 6 4 12 2 12 -3 0 -6 -5
-11 -12 -11 -6 0 -3 -7 8 -16 10 -8 13 -13 7 -9 -17 8 -17 -7 0 -24 10 -11 9
-12 -2 -6 -10 6 -13 4 -8 -7 3 -9 0 -21 -6 -28 -9 -10 -9 -12 3 -8 11 4 15 -1
15 -18 -1 -13 -5 -27 -10 -31 -4 -5 -5 -2 -1 5 4 6 2 12 -3 12 -16 0 -13 -11
7 -33 10 -13 11 -17 3 -12 -11 6 -13 4 -8 -7 3 -9 0 -21 -6 -28 -8 -9 -9 -11
-1 -7 12 7 27 -30 15 -37 -4 -3 -6 -17 -5 -33 1 -15 -4 -34 -10 -42 -9 -12 -8
-14 4 -9 11 4 15 -1 15 -18 -1 -13 -5 -27 -10 -31 -4 -5 -5 -2 -1 5 4 6 2 12
-3 12 -16 0 -13 -11 7 -33 9 -11 11 -17 4 -13 -13 8 -13 -19 1 -40 3 -6 3 -14
-1 -18 -4 -4 -8 -22 -9 -39 -2 -18 -4 -47 -7 -64 -2 -18 1 -33 6 -33 6 0 4 -8
-3 -17 -8 -9 -9 -14 -3 -10 7 4 15 0 18 -9 4 -10 2 -13 -6 -8 -7 5 -9 2 -5 -8
3 -9 0 -21 -6 -28 -9 -10 -9 -11 1 -6 7 5 12 1 12 -9 0 -9 -4 -13 -10 -10 -5
3 -10 1 -10 -4 0 -6 5 -11 11 -11 8 0 7 -6 -2 -17 -12 -15 -12 -16 5 -9 20 7
20 7 0 -15 -10 -12 -13 -19 -6 -15 6 4 12 2 12 -3 0 -6 -5 -11 -12 -11 -6 0
-3 -7 8 -16 10 -8 13 -13 7 -9 -17 8 -17 -7 0 -24 10 -11 9 -12 -2 -6 -11 6
-13 4 -8 -8 3 -9 1 -18 -6 -21 -8 -3 -8 -5 2 -5 11 -1 11 -4 0 -18 -12 -15
-12 -16 5 -9 20 7 20 7 0 -15 -10 -12 -13 -19 -6 -15 6 4 12 2 12 -3 0 -6 -5
-11 -12 -11 -6 0 -3 -7 8 -16 10 -8 13 -13 7 -9 -7 3 -13 2 -13 -2 0 -5 6 -15
13 -22 10 -11 9 -12 -2 -6 -10 6 -13 4 -8 -7 3 -9 0 -21 -6 -28 -9 -10 -9 -12
3 -8 11 4 15 -1 15 -18 -1 -13 -5 -27 -10 -31 -4 -5 -5 -2 -1 5 4 6 2 12 -3
12 -16 0 -13 -11 6 -33 11 -13 12 -17 4 -12 -11 6 -13 4 -8 -7 3 -9 0 -21 -6
-28 -8 -9 -9 -11 -1 -7 12 7 27 -30 15 -37 -4 -3 -6 -17 -5 -33 1 -15 -4 -34
-10 -42 -9 -12 -8 -14 4 -9 11 4 15 -1 15 -18 -1 -13 -5 -27 -10 -31 -4 -5 -5
-2 -1 5 4 6 2 12 -3 12 -16 0 -13 -11 7 -33 9 -11 11 -17 4 -13 -13 8 -13 -19
1 -40 3 -6 3 -14 -1 -18 -4 -4 -8 -22 -9 -39 -2 -18 -4 -47 -7 -64 -2 -18 1
-33 6 -33 6 0 4 -8 -3 -17 -8 -9 -9 -14 -3 -10 7 4 15 0 18 -9 4 -10 2 -13 -6
-8 -7 5 -9 2 -5 -8 3 -9 0 -21 -6 -28 -8 -9 -9 -11 -1 -7 12 7 27 -30 15 -37
-4 -3 -6 -17 -5 -33 1 -15 -4 -34 -10 -42 -9 -12 -8 -14 4 -9 11 4 15 -1 15
-18 -1 -13 -5 -27 -10 -31 -4 -5 -5 -2 -1 5 4 6 2 12 -3 12 -16 0 -13 -11 6
-33 10 -11 12 -17 5 -13 -13 8 -13 -19 1 -41 4 -6 3 -14 -1 -17 -5 -3 -8 -18
-8 -33 1 -15 -2 -38 -6 -51 -5 -15 -4 -21 2 -17 6 3 10 -1 10 -10 0 -9 -4 -14
-8 -11 -5 3 -9 -1 -9 -9 0 -8 4 -12 8 -10 3 3 9 -4 12 -16 4 -15 2 -18 -7 -10
-9 8 -13 7 -13 -4 0 -8 3 -15 7 -15 3 0 6 -9 7 -20 1 -11 -2 -18 -6 -16 -4 3
-8 -1 -8 -9 0 -8 5 -12 10 -8 5 3 6 -4 2 -17 -6 -17 -4 -21 6 -14 12 6 12 5 1
-8 -9 -12 -10 -18 -2 -23 8 -5 8 -11 1 -19 -7 -9 -7 -17 2 -26 7 -8 8 -11 1
-7 -15 9 -24 -27 -12 -44 8 -11 9 -10 4 4 -7 22 3 22 21 0 10 -12 12 -13 8 -3
-4 8 1 6 11 -5 14 -17 16 -17 11 -2 -8 22 1 22 25 0 17 -15 18 -15 13 -1 -5
13 -2 15 14 11 12 -3 21 -10 21 -16 0 -6 3 -7 6 -4 4 4 1 14 -7 24 -12 15 -12
16 1 8 23 -14 122 -16 113 -2 -5 9 -3 9 8 1 8 -6 23 -10 34 -8 11 1 28 -4 38
-13 16 -15 17 -15 12 -1 -5 13 -2 15 14 11 12 -3 21 -10 21 -16 0 -6 3 -7 6
-4 4 4 1 14 -7 24 -12 15 -12 16 1 8 23 -14 122 -16 113 -2 -5 9 -3 9 8 1 8
-6 23 -10 34 -8 11 1 28 -4 38 -13 16 -15 17 -15 12 -1 -5 13 -2 15 14 11 12
-3 21 -10 21 -16 0 -6 3 -7 6 -4 4 4 1 14 -7 24 -12 15 -12 16 1 8 22 -13 122
-16 114 -3 -5 7 -2 8 7 3 21 -14 121 -16 113 -3 -4 7 -2 8 4 4 6 -4 9 -14 6
-24 -5 -15 -4 -15 8 -1 7 9 19 14 27 11 9 -3 11 0 6 8 -5 9 -4 11 4 6 9 -6 9
-11 1 -21 -8 -10 -7 -13 4 -11 9 1 19 6 23 11 4 4 2 5 -4 1 -9 -5 -11 -2 -6 9
3 9 9 12 12 7 3 -5 14 -8 24 -6 9 1 15 -2 11 -7 -3 -5 -10 -6 -16 -3 -7 5 -8
2 -4 -5 6 -9 12 -9 25 3 10 9 21 13 24 9 4 -3 5 8 3 25 -2 16 0 36 5 43 4 7 3
19 -2 25 -7 8 -7 14 0 19 7 4 7 12 -1 25 -9 14 -9 22 1 33 8 10 9 17 1 22 -14
9 -13 28 3 19 9 -5 9 -4 0 6 -8 9 -9 19 -3 31 7 11 7 20 0 24 -5 3 -10 11 -10
16 0 6 4 7 10 4 6 -4 7 2 2 17 -7 22 -8 60 -2 83 2 6 0 18 -5 28 -4 10 -2 23
4 31 8 10 9 16 1 21 -5 3 -10 11 -10 16 0 6 4 8 8 5 10 -6 9 30 -1 40 -12 12
-8 26 5 18 7 -5 8 -3 3 6 -11 18 -13 57 -3 73 4 6 2 17 -3 24 -7 8 -7 18 0 32
7 13 8 22 1 26 -5 3 -10 11 -10 16 0 6 4 8 8 5 9 -5 10 23 1 39 -3 6 -4 21 -2
35 2 14 4 30 5 35 1 6 -2 21 -6 34 -5 14 -4 21 1 18 11 -7 11 23 0 40 -4 6 -3
15 3 18 8 5 8 11 0 20 -8 10 -8 19 -1 34 7 13 8 22 1 26 -5 3 -10 11 -10 16 0
6 4 8 8 5 9 -5 10 23 1 39 -3 6 -4 21 -2 35 4 31 4 39 0 70 -4 32 13 71 27 63
14 -9 46 -11 46 -4 0 3 135 4 300 1 165 -3 300 -3 300 0 0 10 65 5 72 -5 5 -6
8 -5 8 2 0 7 7 10 17 6 12 -5 14 -3 8 8 -5 8 0 6 12 -4 16 -14 23 -15 29 -6 5
8 3 10 -7 4 -8 -5 -10 -4 -6 0 10 12 38 15 31 4 -3 -5 0 -9 5 -9 6 0 11 6 11
13 0 8 4 7 10 -3 8 -12 10 -12 10 -1 0 10 3 11 14 2 11 -9 17 -9 27 1 8 7 33
13 56 12 23 0 40 2 38 6 -2 4 2 7 10 7 8 0 15 -4 15 -9 0 -5 4 -7 10 -3 5 3 6
13 3 23 -6 16 -6 16 10 0 17 -17 57 -14 57 4 0 6 8 4 17 -3 10 -9 14 -9 10 -2
-5 8 4 14 28 19 22 4 32 10 28 18 -4 7 -1 7 7 -1 11 -10 16 -9 27 5 8 9 12 12
9 5 -4 -7 1 -11 13 -10 11 0 18 4 15 8 -2 4 10 12 26 18 24 8 29 7 24 -2 -4
-7 3 -2 15 11 19 19 25 21 39 10 9 -7 13 -8 9 -2 -4 7 0 17 8 24 8 7 15 9 15
4 0 -4 5 -3 11 3 6 6 17 9 24 7 7 -3 16 0 21 7 4 7 3 10 -4 5 -6 -3 -13 -2
-16 3 -4 5 6 8 20 6 14 -1 28 3 31 11 2 7 12 10 20 7 11 -4 14 -2 9 5 -4 7 -1
12 8 12 8 0 16 3 18 8 5 12 68 43 76 38 5 -3 9 1 9 9 0 8 -5 11 -10 8 -6 -3
-7 -1 -3 5 4 6 13 9 21 5 9 -3 31 11 56 36 23 23 47 41 54 41 7 0 18 13 23 30
7 19 16 28 25 25 14 -6 80 59 70 69 -4 3 -1 6 6 6 7 0 10 4 7 8 -2 4 0 14 6
22 8 12 9 12 4 -2 -3 -10 -1 -20 5 -23 5 -4 9 -3 8 2 -4 15 15 47 43 75 29 29
37 44 16 33 -7 -4 -2 3 12 15 14 12 18 19 10 15 -8 -4 -5 2 8 12 13 10 25 28
26 38 2 11 8 19 13 18 6 -1 9 9 7 23 -1 13 1 22 4 20 4 -2 12 2 19 9 10 11 10
14 0 18 -9 3 -9 7 0 19 7 8 11 17 8 20 -3 3 3 11 12 19 16 13 17 12 5 -3 -10
-12 -10 -18 -1 -24 7 -4 9 -3 5 4 -3 6 -2 14 4 17 8 5 7 11 -1 21 -7 9 -8 14
-1 14 6 0 9 9 7 20 -2 12 4 24 16 30 15 9 17 15 9 30 -7 13 -7 21 2 26 7 5 8
3 3 -6 -5 -9 -4 -11 4 -6 9 6 9 11 1 21 -8 10 -8 15 1 21 8 5 10 3 4 -7 -5 -8
-4 -11 1 -6 12 12 12 30 -1 39 -6 5 -5 8 3 8 7 0 10 5 7 10 -3 6 -2 10 3 10 5
0 8 13 6 30 -2 20 2 32 14 39 13 8 14 10 2 11 -12 0 -13 2 -1 9 8 5 9 11 3 15
-11 7 -5 44 12 65 8 11 8 13 -1 7 -7 -4 -13 -3 -13 1 0 5 6 15 13 22 10 11 9
12 -3 6 -13 -8 -13 -6 -1 8 7 9 18 14 25 10 6 -3 7 -2 3 3 -5 5 -13 10 -18 10
-5 1 -12 2 -15 3 -3 0 2 8 11 17 9 9 13 19 10 22 -3 4 -10 0 -15 -7 -5 -10 -8
-6 -7 12 2 21 5 23 16 14 12 -9 13 -9 7 1 -4 7 -2 20 6 29 7 9 8 14 2 10 -7
-4 -17 0 -23 7 -9 11 -9 16 0 22 8 4 9 3 5 -4 -5 -8 -1 -10 10 -5 14 5 14 7 1
14 -10 6 -13 17 -9 31 3 13 1 19 -5 15 -6 -4 -10 1 -9 11 0 9 8 20 16 24 12 5
12 7 -2 7 -21 1 -23 12 -5 30 6 8 7 11 1 8 -7 -4 -11 7 -12 30 -1 19 -6 41
-12 48 -8 9 -8 15 0 20 5 3 10 11 10 16 0 6 -4 7 -10 4 -9 -6 -13 15 -13 68 0
9 -4 17 -9 17 -5 0 -7 4 -4 9 3 5 -2 12 -11 15 -12 5 -14 9 -5 18 9 9 7 17 -6
32 -9 11 -12 16 -5 13 6 -4 15 -2 19 4 4 8 3 9 -4 5 -7 -4 -12 -2 -12 4 0 6
-4 8 -10 5 -5 -3 -10 -1 -10 4 0 6 6 11 13 11 6 0 4 5 -6 11 -9 6 -15 14 -12
20 4 5 1 9 -4 9 -6 0 -11 7 -11 15 0 8 -6 15 -12 15 -10 0 -9 3 1 9 11 7 9 10
-9 16 -16 5 -19 10 -11 18 13 13 15 28 4 26 -24 -4 -33 4 -33 27 0 14 -4 23
-10 19 -9 -6 -14 8 -11 28 0 4 -9 7 -20 7 -19 0 -20 2 -8 17 12 15 12 16 -3
10 -10 -3 -17 -3 -17 1 4 25 -2 34 -14 23 -10 -8 -14 -7 -15 4 -1 8 -3 22 -4
30 -1 8 -5 12 -9 10 -4 -3 -9 2 -13 10 -3 8 -12 15 -21 15 -8 0 -15 5 -15 11
0 5 -4 7 -10 4 -5 -3 -7 0 -5 8 3 7 -5 19 -20 27 -14 7 -25 17 -25 22 0 5 -5
6 -10 3 -5 -3 -10 2 -10 12 0 14 -2 15 -9 4 -7 -11 -10 -9 -15 7 -4 11 -14 23
-23 26 -12 5 -13 3 -7 -7 5 -7 2 -6 -6 3 -9 9 -21 15 -28 12 -7 -2 -11 2 -10
10 2 7 -3 12 -9 10 -7 -1 -13 3 -13 9 0 6 -9 8 -22 3 -20 -6 -21 -5 -10 9 8 9
9 18 3 21 -5 4 -12 2 -16 -4 -4 -6 -11 -8 -16 -4 -5 3 -7 9 -4 14 3 4 -5 6
-17 2 -19 -5 -21 -3 -11 9 10 12 8 15 -7 15 -10 0 -16 -5 -12 -11 3 -5 -1 -4
-10 2 -8 7 -19 9 -23 5 -5 -4 -5 -1 -1 6 6 11 -5 17 -26 13 -5 0 -8 3 -8 9 0
5 -5 10 -11 10 -5 0 -7 -6 -3 -12 6 -10 5 -10 -8 -1 -8 7 -17 11 -20 8 -3 -3
-11 1 -18 10 -7 8 -22 15 -34 15 -11 1 -32 7 -45 14 -14 8 -32 11 -40 8 -8 -3
-12 -1 -8 5 6 10 -8 13 -50 13 -13 0 -23 5 -23 10 0 6 -5 10 -11 10 -5 0 -8
-3 -6 -7 3 -5 -5 -8 -18 -8 -19 0 -21 3 -12 14 10 12 9 12 -10 2 -18 -9 -22
-9 -18 2 4 9 -4 13 -24 12 -17 0 -27 -4 -23 -10 3 -5 -2 -4 -11 4 -9 7 -23 11
-31 8 -7 -3 -19 0 -25 6 -8 8 -11 7 -11 -3 0 -9 -5 -8 -15 6 -15 19 -15 19 -9
-1 6 -16 5 -18 -7 -7 -15 14 -33 17 -25 4 3 -5 -1 -9 -8 -9 -8 0 -12 5 -10 12
3 6 -4 11 -15 11 -11 0 -18 -3 -16 -6 2 -3 -5 -7 -16 -7 -18 -2 -19 0 -7 14
10 14 10 15 0 9 -20 -12 -151 -13 -156 -1 -3 7 -5 7 -5 0 -1 -7 -25 -8 -66 -5
-36 3 -65 3 -65 0 0 -3 -351 -3 -780 0 -429 3 -780 2 -780 -2 0 -5 -5 -8 -11
-8 -5 0 -7 5 -4 10 10 16 -1 11 -16 -7z m1201 -718 c-7 -8 -8 -15 -2 -15 5 0
15 7 22 15 9 11 16 13 23 6 7 -7 14 -7 23 0 8 7 14 6 20 -2 5 -8 3 -9 -6 -4
-9 5 -11 4 -6 -3 5 -9 15 -7 34 5 26 17 26 17 13 0 -12 -15 -11 -17 8 -14 13
2 27 10 32 18 7 11 9 11 9 -3 0 -20 15 -24 26 -7 4 8 9 7 15 -2 5 -9 9 -10 9
-3 0 7 7 15 16 18 14 5 15 4 4 -9 -7 -8 -8 -15 -2 -15 5 0 15 7 22 15 9 11 16
13 23 6 7 -7 14 -7 23 0 8 7 14 6 20 -2 5 -8 3 -9 -6 -4 -8 5 -11 4 -7 -3 4
-5 15 -9 25 -7 9 2 21 4 25 4 5 1 5 5 2 11 -3 6 1 7 9 4 9 -3 13 -11 9 -17 -4
-6 -1 -7 8 -1 21 13 39 14 39 2 0 -6 7 -4 17 3 10 8 14 9 10 2 -4 -6 -3 -14 3
-18 5 -3 10 -2 10 3 0 13 43 2 52 -12 5 -8 8 -7 8 2 0 6 5 12 11 12 5 0 7 -4
4 -10 -3 -5 -1 -10 4 -10 6 0 11 6 11 13 0 8 3 7 9 -3 6 -8 7 -18 4 -23 -3 -5
4 -4 16 2 16 9 21 9 21 0 0 -7 10 -9 25 -7 19 4 23 2 15 -7 -8 -9 -4 -12 12
-11 13 1 29 -6 36 -16 7 -9 19 -15 27 -12 8 4 15 1 15 -5 0 -6 7 -11 15 -11 8
0 15 -4 15 -10 0 -5 7 -10 16 -10 11 0 14 -5 10 -17 -4 -10 -4 -14 0 -10 9 9
94 -80 94 -99 0 -8 5 -14 10 -14 6 0 10 -12 10 -26 0 -18 4 -24 13 -21 8 3 14
-1 14 -9 0 -7 -5 -10 -11 -7 -6 4 -2 -4 9 -17 11 -13 15 -21 9 -17 -6 3 -11 0
-11 -8 0 -8 4 -12 9 -9 4 3 8 0 8 -5 0 -6 -5 -11 -10 -11 -6 0 -5 -6 2 -14 7
-8 16 -12 20 -9 4 2 5 -3 2 -11 -3 -9 -10 -14 -14 -11 -5 3 -6 -4 -3 -15 3
-11 8 -18 12 -15 4 2 7 -5 6 -16 -1 -11 -8 -25 -16 -30 -11 -7 -11 -9 4 -9 19
0 20 -2 11 -24 -3 -9 -9 -14 -13 -11 -4 2 -8 -2 -8 -10 0 -8 7 -15 16 -16 10
0 11 -3 4 -5 -7 -3 -9 -12 -6 -21 5 -11 3 -14 -6 -8 -10 6 -11 3 -2 -13 14
-27 14 -35 -1 -26 -8 5 -9 2 -5 -9 3 -10 3 -17 -1 -17 -4 0 -8 -9 -9 -20 -1
-13 2 -18 10 -13 7 4 7 1 -1 -10 -8 -9 -11 -21 -7 -27 4 -6 1 -9 -6 -8 -12 3
-15 -6 -21 -60 -1 -7 -8 -10 -15 -7 -11 3 -13 -1 -8 -15 5 -15 0 -23 -17 -29
-13 -6 -17 -10 -10 -10 10 -1 10 -5 -2 -17 -9 -8 -21 -12 -28 -8 -9 6 -9 3 1
-9 12 -15 11 -17 -3 -17 -9 0 -15 -6 -13 -12 1 -7 -6 -12 -15 -12 -9 1 -14 -4
-12 -11 3 -7 0 -16 -7 -21 -8 -5 -10 -3 -4 5 6 10 3 11 -11 2 -25 -14 -73 -55
-54 -45 8 4 23 14 33 22 9 8 17 11 17 6 0 -12 -59 -48 -67 -40 -3 3 -13 -3
-22 -12 -9 -10 -12 -12 -7 -5 6 10 4 12 -8 7 -9 -3 -16 -11 -16 -16 0 -6 -11
-7 -24 -4 -14 3 -28 2 -31 -4 -4 -6 1 -7 11 -3 12 4 15 3 10 -6 -5 -7 -17 -11
-27 -8 -11 3 -19 0 -19 -6 0 -7 -5 -5 -10 3 -7 11 -10 11 -10 2 0 -8 -5 -10
-12 -6 -8 5 -9 2 -4 -11 5 -15 4 -16 -9 -5 -12 10 -18 10 -30 0 -8 -7 -15 -9
-15 -5 0 4 -8 1 -17 -6 -10 -8 -14 -9 -10 -2 4 6 3 14 -3 18 -5 3 -10 1 -10
-5 0 -8 -17 -11 -50 -8 -40 2 -49 0 -45 -11 4 -11 3 -12 -10 -1 -10 8 -15 9
-15 1 0 -6 -5 -11 -11 -11 -5 0 -7 5 -4 10 3 6 1 10 -4 10 -6 0 -11 -6 -12
-12 0 -10 -2 -10 -6 0 -2 6 -9 12 -14 12 -6 0 -8 -4 -5 -9 3 -5 -6 -8 -19 -8
-14 0 -25 3 -25 7 0 4 -13 7 -29 6 -16 -1 -27 -5 -23 -10 3 -5 -5 -7 -16 -4
-13 4 -22 1 -23 -5 0 -9 -2 -9 -5 0 -4 8 -13 9 -29 3 -16 -6 -27 -6 -31 2 -5
7 -2 8 7 3 8 -5 10 -4 6 0 -10 12 -38 15 -31 4 3 -5 -1 -9 -8 -10 -7 0 -21 -2
-30 -4 -9 -2 -22 3 -29 11 -7 9 -16 11 -23 6 -21 -17 -45 -21 -52 -10 -5 7 -2
8 7 3 8 -5 10 -4 6 0 -10 12 -38 15 -31 4 3 -5 -1 -9 -8 -10 -7 0 -21 -2 -31
-4 -9 -2 -15 1 -11 6 3 5 10 7 15 4 5 -4 9 -1 9 4 0 16 -16 13 -36 -6 -17 -17
-17 -17 -12 5 3 12 3 22 0 22 -10 0 -9 72 1 87 4 6 3 14 -3 18 -15 9 -12 28 3
19 9 -5 9 -4 0 6 -8 9 -9 19 -3 31 7 11 7 20 0 24 -5 3 -10 11 -10 16 0 6 4 7
10 4 6 -4 7 2 2 17 -7 22 -8 60 -2 83 2 6 0 18 -5 28 -4 10 -2 23 4 31 8 10 9
16 1 21 -5 3 -10 11 -10 16 0 6 4 8 8 5 10 -6 9 30 -1 40 -12 12 -8 26 5 18 7
-5 8 -3 3 6 -11 18 -13 57 -3 73 4 6 2 17 -3 24 -7 8 -7 18 0 32 7 13 8 22 1
26 -5 3 -10 11 -10 16 0 6 4 8 8 5 9 -5 10 23 1 39 -3 6 -4 21 -2 35 2 14 4
30 5 35 1 6 -2 21 -6 34 -5 14 -4 21 1 18 11 -7 11 23 0 40 -4 6 -3 15 3 18 8
5 8 11 0 20 -8 10 -8 19 -1 34 7 13 8 22 1 26 -5 3 -10 11 -10 16 0 6 4 8 8 5
7 -4 8 27 2 44 -6 14 -5 37 3 54 6 11 5 16 0 13 -5 -3 -9 4 -8 15 2 29 35 40
60 19 18 -14 18 -14 7 0 -11 15 -7 16 38 16 34 0 47 -3 43 -11 -4 -6 1 -5 10
3 12 10 17 10 17 2 0 -8 6 -7 16 3 20 20 30 21 14 1z m195 -1155 c-3 -5 -12
-10 -18 -10 -7 0 -6 4 3 10 19 12 23 12 15 0z m1431 -268 c-17 -16 -18 -16 -5
5 7 12 15 20 18 17 3 -2 -3 -12 -13 -22z m-916 -426 c0 -3 -4 -8 -10 -11 -5
-3 -10 -1 -10 4 0 6 5 11 10 11 6 0 10 -2 10 -4z"/>
<path d="M3367 4429 c7 -7 15 -10 18 -7 3 3 -2 9 -12 12 -14 6 -15 5 -6 -5z"/>
<path d="M3435 4400 c3 -5 8 -10 11 -10 2 0 4 5 4 10 0 6 -5 10 -11 10 -5 0
-7 -4 -4 -10z"/>
<path d="M4148 3703 c7 -3 16 -2 19 1 4 3 -2 6 -13 5 -11 0 -14 -3 -6 -6z"/>
<path d="M1010 3680 c0 -5 5 -10 11 -10 5 0 7 5 4 10 -3 6 -8 10 -11 10 -2 0
-4 -4 -4 -10z"/>
<path d="M1010 2720 c0 -5 5 -10 11 -10 5 0 7 5 4 10 -3 6 -8 10 -11 10 -2 0
-4 -4 -4 -10z"/>
<path d="M1010 1760 c0 -5 5 -10 11 -10 5 0 7 5 4 10 -3 6 -8 10 -11 10 -2 0
-4 -4 -4 -10z"/>
<path d="M1010 1280 c0 -5 5 -10 11 -10 5 0 7 5 4 10 -3 6 -8 10 -11 10 -2 0
-4 -4 -4 -10z"/>
</g>
</svg>
